<svg width="34" height="34" viewBox="0 0 34 34" fill="none" xmlns="http://www.w3.org/2000/svg">
<path d="M16.9879 0C7.596 0 0 7.65 0 17.0971C0 25.6214 6.21271 32.7129 14.3426 34V22.0514H10.0228V17.0971H14.3426V13.3329C14.3426 9.03429 16.8908 6.67857 20.7495 6.67857C22.6181 6.67857 24.5596 7.01857 24.5596 7.01857V11.22H22.424C20.3126 11.22 19.6574 12.5314 19.6574 13.8914V17.0971H24.3655L23.6131 22.0514H19.6574V34C27.7873 32.7129 34 25.6457 34 17.0971C34 7.65 26.404 0 17.0121 0H16.9879Z" fill="black"/>
</svg>
