<svg width="34" height="34" viewBox="0 0 34 34" fill="none" xmlns="http://www.w3.org/2000/svg">
<path d="M17 0C13.6377 0 10.3509 0.997032 7.55531 2.86502C4.75968 4.733 2.58074 7.38804 1.29406 10.4944C0.00736583 13.6007 -0.329291 17.0189 0.326658 20.3165C0.982606 23.6142 2.6017 26.6433 4.97919 29.0208C7.35668 31.3983 10.3858 33.0174 13.6835 33.6733C16.9811 34.3293 20.3993 33.9926 23.5056 32.7059C26.612 31.4193 29.267 29.2403 31.135 26.4447C33.003 23.6491 34 20.3623 34 17C33.9955 12.4927 32.203 8.1713 29.0158 4.98415C25.8287 1.79701 21.5073 0.00450055 17 0ZM27.0963 13.1121V14.2103C27.0963 14.2943 27.0795 14.3776 27.0469 14.455C27.0142 14.5324 26.9663 14.6026 26.9061 14.6612C26.8459 14.7198 26.7745 14.7658 26.6962 14.7964C26.618 14.827 26.5343 14.8416 26.4503 14.8393C24.6555 14.7121 22.9384 14.0567 21.5152 12.9557V20.9933C21.515 21.8829 21.3375 22.7635 20.9931 23.5837C20.6486 24.4039 20.1442 25.1473 19.5092 25.7703C18.8685 26.4089 18.1072 26.9136 17.2696 27.2551C16.4319 27.5966 15.5347 27.768 14.6302 27.7593C12.8111 27.7561 11.0652 27.0424 9.76481 25.7703C8.93757 24.9363 8.34172 23.9013 8.0359 22.7671C7.73007 21.6329 7.7248 20.4386 8.02061 19.3018C8.29091 18.2104 8.83661 17.2074 9.60671 16.3897C10.181 15.6877 10.9049 15.123 11.7256 14.7368C12.5462 14.3506 13.4428 14.1527 14.3497 14.1576H15.7437V17.0527C15.7443 17.1368 15.727 17.22 15.6929 17.2969C15.6588 17.3737 15.6087 17.4425 15.546 17.4984C15.4833 17.5544 15.4093 17.5964 15.3291 17.6215C15.2488 17.6467 15.1642 17.6544 15.0807 17.6443C14.2713 17.4012 13.3992 17.4818 12.6481 17.8692C11.897 18.2566 11.3256 18.9205 11.0545 19.7209C10.7834 20.5214 10.8336 21.3958 11.1946 22.1599C11.5556 22.924 12.1992 23.5181 12.9897 23.817C13.4487 24.0805 13.9621 24.2352 14.4891 24.2709C14.8971 24.2879 15.3051 24.2369 15.6927 24.1145C16.34 23.8966 16.9032 23.482 17.3033 22.9285C17.7035 22.375 17.9208 21.7103 17.9248 21.0273V6.3818C17.9246 6.30151 17.9402 6.22197 17.9708 6.14772C18.0013 6.07348 18.0463 6.006 18.103 5.94915C18.1596 5.8923 18.227 5.84719 18.3012 5.81642C18.3753 5.78564 18.4548 5.7698 18.5351 5.7698H20.9406C21.097 5.76958 21.2476 5.82943 21.3611 5.93698C21.4747 6.04454 21.5426 6.1916 21.5509 6.3478C21.6389 7.09781 21.8772 7.82237 22.2517 8.47813C22.6262 9.13389 23.1291 9.70739 23.7303 10.1643C24.5431 10.7744 25.5084 11.1485 26.52 11.2455C26.6715 11.2585 26.8132 11.3259 26.9189 11.4353C27.0245 11.5447 27.0869 11.6886 27.0946 11.8405L27.0963 13.1121Z" fill="black"/>
</svg>
